/* XPM */
static char *_264a48b8ac34eb4e72397c554350baa[] = {
/* columns rows colors chars-per-pixel */
"80 53 173 2 ",
"   c #45142A",
".  c #4B152C",
"X  c #481A2D",
"o  c #51152E",
"O  c #57192F",
"+  c #541730",
"@  c #551932",
"#  c #5B1933",
"$  c #63162B",
"%  c #580F42",
"&  c #853459",
"*  c #933F65",
"=  c #FF3D57",
"-  c #FE3B5B",
";  c #FE3C64",
":  c #FD3F6B",
">  c #A74974",
",  c #AA4A7E",
"<  c #FE4257",
"1  c #FF465E",
"2  c #FF495E",
"3  c #FE4364",
"4  c #FE426D",
"5  c #FF4D6A",
"6  c #FD5567",
"7  c #FE546B",
"8  c #FF4274",
"9  c #FF4A74",
"0  c #FF447C",
"q  c #FF4A7D",
"w  c #FE5A73",
"e  c #FE527C",
"r  c #FE5A7B",
"t  c #F06179",
"y  c None",
"u  c #20719E",
"i  c #2272A2",
"p  c #2D79A8",
"a  c #3C76A8",
"s  c #48759F",
"d  c #7C699E",
"f  c #427DAB",
"g  c #6C6FA1",
"h  c #5B3CF9",
"j  c #6E37F8",
"k  c #633BF9",
"l  c #7B3BF8",
"z  c #5B43FB",
"x  c #5F4DFB",
"c  c #5D50F9",
"v  c #6649FB",
"b  c #7548F9",
"n  c #6A58FB",
"m  c #6B5FF9",
"M  c #7164FB",
"N  c #7E74F6",
"B  c #7C72FC",
"V  c #AA4C88",
"C  c #AC538E",
"Z  c #AD5593",
"A  c #A55A9B",
"S  c #B95E9C",
"D  c #8B649F",
"F  c #93629E",
"G  c #8066BE",
"H  c #FF4683",
"J  c #FE4D85",
"K  c #FE4C8C",
"L  c #FF5587",
"P  c #FF538B",
"I  c #FF4E91",
"U  c #FF5295",
"Y  c #FF5D93",
"T  c #FF549B",
"R  c #FF5B9A",
"E  c #EC6986",
"W  c #FD6485",
"Q  c #FD638C",
"!  c #FE6391",
"~  c #FD679D",
"^  c #EA7192",
"/  c #FF57A1",
"(  c #FE5AA1",
")  c #FF5EAC",
"_  c #C860A1",
"`  c #FA6AAC",
"'  c #FE66B3",
"]  c #F96BB6",
"[  c #FF6DBB",
"{  c #E471B8",
"}  c #9C3DFA",
"|  c #AE38FC",
" . c #BF39FF",
".. c #CB3CFA",
"X. c #A976DC",
"o. c #8544FA",
"O. c #8D44F9",
"+. c #894DFB",
"@. c #954AF9",
"#. c #8455FB",
"$. c #8E55F9",
"%. c #9B56FD",
"&. c #A842F5",
"*. c #BE44FA",
"=. c #A55AFB",
"-. c #8668F8",
";. c #9966F1",
":. c #847BFA",
">. c #927FF7",
",. c #AA68FA",
"<. c #B26EF5",
"1. c #B374FA",
"2. c #FF5ECD",
"3. c #FE57D3",
"4. c #FF65C5",
"5. c #FB69C7",
"6. c #FE76C9",
"7. c #FC61D5",
"8. c #F778D6",
"9. c #FB7CD6",
"0. c #D848FA",
"q. c #FF4DEE",
"w. c #FC59E5",
"e. c #F049F7",
"r. c #F859F9",
"t. c #E37BE0",
"y. c #1D91C5",
"u. c #1B97D6",
"i. c #2296DD",
"p. c #019DFA",
"a. c #1BA8ED",
"s. c #01A4FB",
"d. c #01ACFA",
"f. c #0BACF8",
"g. c #14ACFC",
"h. c #0AB1FC",
"j. c #12B2FB",
"k. c #1CB3FE",
"l. c #26ACFB",
"z. c #3DACFC",
"x. c #27B7FC",
"c. c #2BB5F9",
"v. c #3BB7F6",
"b. c #34BCFF",
"n. c #499DDB",
"m. c #7A99D7",
"M. c #65A3D3",
"N. c #46BBFC",
"B. c #63A2F9",
"V. c #2EC1FF",
"C. c #41C3FC",
"Z. c #4BCCFE",
"A. c #57C9F6",
"S. c #56CCFC",
"D. c #5CC9FD",
"F. c #6AD4FE",
"G. c #7ED0FC",
"H. c #9F98DA",
"J. c #B795D8",
"K. c #968DFE",
"L. c #9C8CFF",
"P. c #8997F4",
"I. c #9E92FB",
"U. c #B889E9",
"Y. c #AD85F2",
"T. c #A78CF1",
"R. c #C78ED8",
"E. c #D48BD6",
"W. c #E48DD5",
"Q. c #FB87DE",
"!. c #FB8BDE",
"~. c #E491D8",
"^. c #D180E9",
/* pixels */
"y y y y y y y y y y y y y y y y y y y y y y y y y y y y y y y y y y y y y y y y y y y y y y y y y y y y y y y y y y y y y y y y y y y y y y y y y y y y y y y y ",
"y y y y y y y y y y y y y y y y y y y y y y y y y y y y y y y y y y y y y y y y y y y y y y y y y y y y y y y y y y y y y y y y y y y y y y y y y y y y y y y y ",
"y y y y y y y y y y y y y y y y y y y y y y y y y y y y y y y y y y y y y y y y y y y y y y y y y y y y y y y y y y y y y y y y y y y y y y y y y y y y y y y y ",
"y y y y y y y y y y y y y y y y y y y y y y y y y y y y y y y y y y y y y y y y y y y y y y y y y y y y y y y y y y y y y y y y y y y y y y y y y y y y y y y y ",
"y y y y y y y y y y y y y y y y y y y y y y y y y y y y y y y y y y y y y y y y y y y y y y y y y y y y y y y y y y y y y y y y y y y y y y y y y y y y y y y y ",
"y y y y y y y y y y y y y y y y y y y y y y y y y y y y y y y y y y y y y y y y y y y y y y y y y y y y y y y y y y y y y y y y y y y y y y y y y y y y y y y y ",
"y y y y y y y y y y y y y y y y y y y y y y y y y y y y y y y y y y y y y y y y y y y y y y y y y y y y y y y y y y y y y y y y y y y y y y y y y y y y y y y y ",
"y y y y y y y y y y y y y y y y y y y y y y y y y y y y y y y y y y y y y y y y y y y o . . X         y y y y y y y y y y y y y y y y y y y y y y y y y y y y y ",
"y y y y y y y y y y y y y y y y y y y y y y y y y y y y y y y y y y y y y y + + @ @ + + + X +   o *   y y y y y y y y y y y y y y y y y y y y y y y y y y y y y ",
"y y y y y y y y y y y y y y y y y y y y y y y y y y y y y y y y y y y + @ # @ @ @ @ # $ ^ Q ! Y P ~ & y y y y y y y y y y y y y y y y y y y y y y y y y y y y y ",
"y y y y y y y y y y y y y y y y y y y y y y y y y y y y y y y y o @ # # # # $ E W r r w e e e e L ! > y y y y y y y y y y y y y y y y y y y y y y y y y y y y y ",
"y y y y y y y y y y y y y y y y y y y y y y y y y y y y y y . O @ $ t w w w 7 6 5 5 5 5 9 9 9 J L R > y y y y y y y y y y y y y y y y y y y y y y y y y y y y y ",
"y y y y y y y y y y y y y y y y y y y y y y y y y y y y y y $ w 6 6 2 2 1 1 3 3 3 3 4 4 8 8 8 H K T , y y y y y y y y y y y y y y y y y y y y y y y y y y y y y ",
"y y y y y y y y y y y y y y y y y y y y y y y y y y y y y y Q 6 2 < = = = = - - 3 ; : 8 8 0 H K U / , y y y y y y y y y y y y y y y y y y y y y y y y y y y y y ",
"y y y y y y y y y y y y y y y y y y y y y y y y y y y y y y W 5 1 - - - = - - ; : : : 8 H H H U / ) V y y y y y y y y y y y y y y y y y y y y y y y y y y y y y ",
"y y y y y y y y y y y y y y y y y y y y y y y y y y y y y y Q 5 1 - - - - ; ; : 4 8 H H K I T / ) ' C y y y y y y y y y y y y y y y y y y y y y y y y y y y y y ",
"y y y y y y y y y y y y y y y y y y y y y y y y y y y y y y ! 9 3 ; ; ; ; 4 8 0 q J K T T ( ) ` [ 6.Z y y y y y y y y y y y y y y y y y y y y y y y y y y y y y ",
"y y y y y y y y y y y y y y y y y y y y y y y y y y y y y y ~ e 8 : : 8 8 q L P U ( ` [ 6.!.Z % !.6.Z y y y y y y y y y y y y y y y y y y y y y y y y y y y y y ",
"y y y y y y y y y y y y y y y y y y y y y y y y y y y y y y ` L q 0 q J I ( ' 6.Q.S y y y y y y W.8.Z y y y y y y y y y y y y y y y y y y y y y y y y y y y y y ",
"y y y y y y y y y y y y y y y y y y y y y y y y y y y y y y ] R T / 4.9._ y y y y y y y y y y y ~.8.Z y y y y y y y y y y y y y y y y y y y y y y y y y y y y y ",
"y y y y y y y y y y y y y y y y y y y y y y y y y y y y y y 5.' { y y y y y y y y y y y y y y y ~.t.A y y y y y y y y y y y y y y y y y y y y y y y y y y y y y ",
"y y y y y y y y y y y y y y y y y y y y y y y y y y y y y y 5.4.y y y y y y y y y y y y y y y y E.^.F y y y y y y y y y y y y y y y y y y y y y y y y y y y y y ",
"y y y y y y y y y y y y y y y y y y y y y y y y y y y y y y 7.2.y y y y y y y y y y y y y y y y R.U.D y y y y y y y y y y y y y y y y y y y y y y y y y y y y y ",
"y y y y y y y y y y y y y y y y y y y y y y y y y y y y y y w.3.y y y y y y y y y y y y y y y y J.T.d y y y y y y y y y y y y y y y y y y y y y y y y y y y y y ",
"y y y y y y y y y y y y y y y y y y y y y y y y y y y y y y w.w.y y y y y y y y y y y y y y y y H.P.g y y y y y y y y y y y y y y y y y y y y y y y y y y y y y ",
"y y y y y y y y y y y y y y y y y y y y y y y y y y y y y y r.q.y y y y y y y y y y y y y y y y m.B.g y y y y y y y y y y y y y y y y y y y y y y y y y y y y y ",
"y y y y y y y y y y y y y y y y y y y y y y y y y y y y y y r.e.y y y y y y y y y y y y y y y y n.z.s y y y y y y y y y y y y y y y y y y y y y y y y y y y y y ",
"y y y y y y y y y y y y y y y y y y y y y y y y y y y y y y r.e.y y y y y y y y y y y y y y y y i.d.a y y y y y y y y y y y y y y y y y y y y y y y y y y y y y ",
"y y y y y y y y y y y y y y y y y y y y y y y y y y y y y y 0.0.y y y y y y y y y y y y y y y y i.d.u y y y y y y y y y y y y y y y y y y y y y y y y y y y y y ",
"y y y y y y y y y y y y y y y y y y y y y y y y y y y y y y 0...y y y y y y y y y y y y y y y y i.d.i y y y y y y y y y y y y y y y y y y y y y y y y y y y y y ",
"y y y y y y y y y y y y y y y y y y y y y y y y y y y y y y *. .y y y y y y y y y y y y y y y y u.d.i y y y y y y y y y y y y y y y y y y y y y y y y y y y y y ",
"y y y y y y y y y y y y y y y y y y y y y y y y y y y y y y &.| y y y y y y y y y y y y y y y y V.d.u y y y y y y y y y y y y y y y y y y y y y y y y y y y y y ",
"y y y y y y y y y y y y y y y y y y y y y y y y y y y y y y } } y y y y y y y y y y y y y.j.d.d.f.h.p y y y y y y y y y y y y y y y y y y y y y y y y y y y y y ",
"y y y y y y y y y y y y y y y y y y y y y y y y y y y y y y O.O.y y y y y y y y y y s.s.p.s.s.d.g.x.a y y y y y y y y y y y y y y y y y y y y y y y y y y y y y ",
"y y y y y y y y y y y y y y y y y y y y y y y y y y y y y y $.#.y y y y y y y y y g.p.p.p.s.s.s.f.b.f y y y y y y y y y y y y y y y y y y y y y y y y y y y y y ",
"y y y y y y y y y y y y y y y y y y y y y y y y y y y y y ;.#.#.y y y y y y y y a.p.p.p.p.p.p.s.f.b.f y y y y y y y y y y y y y y y y y y y y y y y y y y y y y ",
"y y y y y y y y y y y y y y y y y y y y y y y y y ,.=.%.$.#.M -.y y y y y y y y l.p.p.p.p.p.p.s.j.C.y y y y y y y y y y y y y y y y y y y y y y y y y y y y y y ",
"y y y y y y y y y y y y y y y y y y y y y y y <.=.=.@.O.b b M :.y y y y y y y y N.l.s.p.p.p.p.d.c.Z.y y y y y y y y y y y y y y y y y y y y y y y y y y y y y y ",
"y y y y y y y y y y y y y y y y y y y y y y X.=.@.O.o.j v v m N y y y y y y y y M.v.g.s.p.s.d.k.C.F.y y y y y y y y y y y y y y y y y y y y y y y y y y y y y y ",
"y y y y y y y y y y y y y y y y y y y y y y <.%.@.b j k z x m :.y y y y y y y y y D.N.c.k.l.c.S.F.y y y y y y y y y y y y y y y y y y y y y y y y y y y y y y y ",
"y y y y y y y y y y y y y y y y y y y y y y <.%.o.l k h z c M K.y y y y y y y y y y G.D.A.A.D.y y y y y y y y y y y y y y y y y y y y y y y y y y y y y y y y y ",
"y y y y y y y y y y y y y y y y y y y y y y 1.%.+.l k z c n B I.y y y y y y y y y y y y y y y y y y y y y y y y y y y y y y y y y y y y y y y y y y y y y y y y ",
"y y y y y y y y y y y y y y y y y y y y y y U.,.$.b b n M B K.y y y y y y y y y y y y y y y y y y y y y y y y y y y y y y y y y y y y y y y y y y y y y y y y y ",
"y y y y y y y y y y y y y y y y y y y y y y y Y.>.;.-.-.>.L.y y y y y y y y y y y y y y y y y y y y y y y y y y y y y y y y y y y y y y y y y y y y y y y y y y ",
"y y y y y y y y y y y y y y y y y y y y y y y y y Y.T.G y y y y y y y y y y y y y y y y y y y y y y y y y y y y y y y y y y y y y y y y y y y y y y y y y y y y ",
"y y y y y y y y y y y y y y y y y y y y y y y y y y y y y y y y y y y y y y y y y y y y y y y y y y y y y y y y y y y y y y y y y y y y y y y y y y y y y y y y ",
"y y y y y y y y y y y y y y y y y y y y y y y y y y y y y y y y y y y y y y y y y y y y y y y y y y y y y y y y y y y y y y y y y y y y y y y y y y y y y y y y ",
"y y y y y y y y y y y y y y y y y y y y y y y y y y y y y y y y y y y y y y y y y y y y y y y y y y y y y y y y y y y y y y y y y y y y y y y y y y y y y y y y ",
"y y y y y y y y y y y y y y y y y y y y y y y y y y y y y y y y y y y y y y y y y y y y y y y y y y y y y y y y y y y y y y y y y y y y y y y y y y y y y y y y ",
"y y y y y y y y y y y y y y y y y y y y y y y y y y y y y y y y y y y y y y y y y y y y y y y y y y y y y y y y y y y y y y y y y y y y y y y y y y y y y y y y ",
"y y y y y y y y y y y y y y y y y y y y y y y y y y y y y y y y y y y y y y y y y y y y y y y y y y y y y y y y y y y y y y y y y y y y y y y y y y y y y y y y ",
"y y y y y y y y y y y y y y y y y y y y y y y y y y y y y y y y y y y y y y y y y y y y y y y y y y y y y y y y y y y y y y y y y y y y y y y y y y y y y y y y ",
"y y y y y y y y y y y y y y y y y y y y y y y y y y y y y y y y y y y y y y y y y y y y y y y y y y y y y y y y y y y y y y y y y y y y y y y y y y y y y y y y "
};
